<?xml version="1.0" encoding="UTF-8" standalone="no"?>
<!DOCTYPE svg PUBLIC "-//W3C//DTD SVG 1.1//EN" "http://www.w3.org/Graphics/SVG/1.1/DTD/svg11.dtd">
<svg width="100%" height="100%" viewBox="0 0 123 123" version="1.1" xmlns="http://www.w3.org/2000/svg" xmlns:xlink="http://www.w3.org/1999/xlink" xml:space="preserve" xmlns:serif="http://www.serif.com/" style="fill-rule:evenodd;clip-rule:evenodd;stroke-linejoin:round;stroke-miterlimit:2;">
    <g transform="matrix(0.177747,0,0,0.177747,-29.602108,-29.669823)">
        <path d="M341.959,481.538C350.443,382.48 309.958,322.484 243.194,254.802C211.971,223.148 172.199,173.859 172.065,173.503C171.17,171.125 173.922,172.516 199.447,189.576C297.426,255.062 334.943,295.34 395.456,349.549C422.575,373.843 423.6,375.887 425.322,373.363C438.302,354.338 437.409,353.789 452.076,336.143C505.066,272.386 569.562,293.381 593.139,315.893C641.16,361.744 618.785,432.69 599.68,493.556C575.456,570.729 557.634,648.761 494.338,672.055C454.455,686.733 413.934,672.778 392.787,658.096C318.262,606.356 337.291,523.573 341.959,481.538ZM469.443,607.064C469.595,607.035 512.405,606.028 545.598,536.547C566.514,492.764 579.395,425.639 561.642,382.44C546.009,344.401 491.955,334.831 452.013,391.148C449.156,395.176 450.037,395.984 453.862,399.067C503.169,438.812 547.841,467.288 552.4,470.622C555.854,473.147 544.614,505.593 543.594,508.535C541.863,513.533 541.998,517.562 538.164,513.862C499.247,476.305 499.547,476.123 496.161,472.87C475.066,452.607 439.694,413.744 438.478,413.663C436.735,413.547 414.089,451.221 403.492,486.497C382.793,555.4 415.269,588.146 421.509,593.491C441.503,610.62 464.711,607.32 469.443,607.064Z" style="fill:#ffffff;"/>
        <path d="M729.525,853.102C727.846,852.939 726.159,852.87 724.481,852.707C717.636,852.045 675.981,848.015 650.921,808.235C603.998,733.748 678.011,689.813 610.91,593.214C593.703,568.442 589.18,569.449 591.419,562.473C608.818,508.268 607.374,503.132 612.25,505.957C671.018,540.006 754.021,580.758 810.214,635.791C869.982,694.324 857.389,767.73 832.102,802.193C790.917,858.324 735.547,853.106 729.525,853.102Z" style="fill:#ffffff;"/>
    </g>
</svg>
