<?xml version="1.0" encoding="UTF-8" standalone="no"?>
<!DOCTYPE svg PUBLIC "-//W3C//DTD SVG 1.1//EN" "http://www.w3.org/Graphics/SVG/1.1/DTD/svg11.dtd">
<svg width="100%" height="100%" viewBox="0 0 123 123" version="1.1" xmlns="http://www.w3.org/2000/svg" xmlns:xlink="http://www.w3.org/1999/xlink" xml:space="preserve" xmlns:serif="http://www.serif.com/" style="fill-rule:evenodd;clip-rule:evenodd;stroke-linejoin:round;stroke-miterlimit:2;">
    <g transform="matrix(0.158935,0,0,0.158935,-19.715316,-16.192734)">
        <path d="M412.96,510.528C413.121,509.183 413.128,507.822 413.289,506.476C421.224,440.171 488.874,404.948 523.438,400.118C576.354,392.722 586.343,413.942 595.387,409.282C662.577,374.657 784.649,315.699 794.29,310.149C815.932,297.69 815.292,270.061 840.407,264.136C880.74,254.621 885.528,316.331 838.508,315.246C816.753,314.744 815.462,312.251 788.234,328.043C743.378,354.06 615.486,426.789 615.298,427.379C614.571,429.66 615.796,429.31 618.073,431.879C659.438,478.542 654.914,572.1 549.298,620.033C475.142,653.688 367.891,637.56 278.835,717.886C266.983,728.576 264.884,729.513 267.972,733.084C291.733,760.561 327.229,787.847 332.79,792.122C356.695,810.498 375.534,820.486 367.478,818.151C364.561,817.305 348.001,807.757 346.338,806.798C288.882,773.668 278.201,757.167 258.164,738.976C253.482,734.726 167.06,842.998 151.784,870.865C149.714,874.642 149.732,870.686 149.785,870.533C159.265,843.255 172.009,791.224 217.988,721.825C227.644,707.25 230.815,706.745 227.072,701.828C132.683,577.819 141.949,436.628 175.127,350.362C267.537,110.093 543.296,45.272 727.235,160.925C786.761,198.353 793.565,216.636 796.165,223.622C815.883,276.606 747.47,322.958 702.069,274.927C651.898,221.851 554.024,177.734 452.543,192.771C198.849,230.362 104.847,514.056 233.923,692.186C238.455,698.442 239.067,691.93 248.869,680.814C253.166,675.941 297.218,621.088 360.552,588.598C415.5,560.409 424.008,565.976 422.587,561.482C419.001,550.137 412.267,545.044 412.96,510.528Z" style="fill:#ffffff;"/>
    </g>
</svg>
