<?xml version="1.0" encoding="UTF-8" standalone="no"?><!DOCTYPE svg PUBLIC "-//W3C//DTD SVG 1.1//EN" "http://www.w3.org/Graphics/SVG/1.1/DTD/svg11.dtd"><svg width="240" height="240" viewBox="0 0 123 123" version="1.1" xmlns="http://www.w3.org/2000/svg" xmlns:xlink="http://www.w3.org/1999/xlink" xml:space="preserve" xmlns:serif="http://www.serif.com/" style="fill-rule:evenodd;clip-rule:evenodd;stroke-linejoin:round;stroke-miterlimit:2;"><path d="M60.854,48.534c0.678,-3.767 2.326,-5.616 4.91,-9.803c0.223,-0.361 4.532,-6.978 4.465,-12.16c-0.155,-11.946 -13.502,-12.929 -17.133,-5.876c-3.958,7.686 5.82,18.388 6.921,26.197c0.148,1.048 0.875,6.206 -5.639,11.973c-10.345,9.157 -19.573,7.109 -23.436,2.279c-5.932,-7.417 -0.738,-16.223 -0.847,-22.377c-0.135,-7.558 -4.902,-11.451 -15.688,-22.735c-2.938,-3.074 -8.454,-9.502 -8.357,-9.755c0.081,-0.212 0.867,0.411 1.105,0.563c0.866,0.555 6.01,3.851 10.585,7.308c15.679,11.846 24.054,20.004 24.409,20.322c8.981,8.073 14.401,19.42 15.31,15.986c0.983,-3.712 -4.24,-6.735 -9.193,-12.179c-12.958,-14.246 -4.284,-25.986 1.826,-29.522c12.867,-7.447 27.6,0.625 28.63,13.098c1.264,15.296 -15.277,20.135 -16.495,26.67c-1.499,8.04 47.076,21.63 53.605,42.796c5.205,16.873 -10.978,29.248 -23.676,24.725c-12.249,-4.364 -10.79,-17.166 -11.5,-22.965c-2.623,-21.424 -20.708,-30.674 -19.803,-44.543Zm-23.398,-4.718c0.42,6.68 -1.262,14.209 8.201,13.92c3.776,-0.115 9.147,-2.7 9.117,-4.495c-0.074,-4.448 -12.724,-14.683 -19.192,-20.333c-3.139,-2.743 -3.221,-3.051 -3.411,-2.756c-0.291,0.452 4.191,3.045 5.285,13.664Z" style="fill:#10141a;"/></svg>
