<?xml version="1.0" encoding="UTF-8" standalone="no"?>
<!DOCTYPE svg PUBLIC "-//W3C//DTD SVG 1.1//EN" "http://www.w3.org/Graphics/SVG/1.1/DTD/svg11.dtd">
<svg width="100%" height="100%" viewBox="0 0 123 123" version="1.1" xmlns="http://www.w3.org/2000/svg" xmlns:xlink="http://www.w3.org/1999/xlink" xml:space="preserve" xmlns:serif="http://www.serif.com/" style="fill-rule:evenodd;clip-rule:evenodd;stroke-linejoin:round;stroke-miterlimit:2;">
    <g transform="matrix(0.084182,0,0,0.084182,-24.605791,-24.693209)">
        <path d="M1017.904,363.004C1011.646,498.245 781.655,624.485 666.293,870.688C602.661,1006.489 670.52,1079.457 766.314,1002.135C821.623,957.491 881.199,871.302 900.546,897.341C918.723,921.804 774.321,1056.365 657.113,1099.306C486.547,1161.795 359.855,1085.731 507.767,895.594C624.187,745.938 925.133,527.285 894.295,435.239C891.206,426.019 865.948,389.655 805.315,411.911C759.283,428.808 679.272,489.036 701.03,488.506C704.208,488.428 744.716,481.155 737.372,497.199C729.236,514.974 688.355,515.905 533.611,629.836C399.819,728.341 337.358,782.906 321.061,797.143C303.495,812.488 324.311,787.584 324.871,786.914C334.342,775.583 480.717,567.67 707.704,407.993C869.592,294.11 1014.657,271.821 1017.904,363.004Z"/>
        <path d="M1145.173,579.186C1190.199,561.396 1273.775,516.758 1409.103,532.026C1520.39,544.581 1597.413,604.361 1636.094,649.78C1759.15,794.27 1668.605,920.358 1629.786,1001.378C1547.51,1173.093 1655.389,1296.514 1703.549,1392.724C1771.556,1528.584 1714.599,1723.784 1550.921,1740.045C1406.579,1754.385 1301.086,1638.457 1293.895,1520.952C1282.825,1340.064 1505.958,1066.095 1545.544,915.143C1568.445,827.82 1534.426,744.687 1502.885,713.114C1473.525,683.724 1473.748,726.557 1473.439,729.055C1455.846,871.655 1362.36,907.186 1200.248,1050.144C1083.852,1152.788 1079.041,1214.845 1050.185,1296.71C1021.585,1377.844 958.493,1406.52 901.565,1372.025C792.262,1305.795 788.402,1135.768 809.9,1091.412C821.284,1067.922 828.317,1114.761 828.861,1117.034C830.379,1123.378 847.564,1195.206 882.662,1178.297C917.221,1161.647 1018.754,993.612 982.403,891.213C934.268,755.621 777.755,906.157 750.655,918.229C725.781,929.31 722.8,901.641 768.258,836.498C948.488,578.22 1251.291,555.223 1352.434,737.325C1382.519,791.492 1380.284,814.937 1388.704,806.655C1436.947,759.203 1413.965,615.803 1323.129,594.4C1289.359,586.443 1348.429,633.63 1347.488,657.019C1346.417,683.672 1299.907,602.517 1189.133,586.124C1148.9,580.17 1148.701,582.998 1145.216,582.46C1142.796,582.087 1144.883,581.229 1144.834,581.048L1145.173,579.186ZM1050.978,994.117C1053.949,993.697 1061.689,994.981 1082.272,978.133C1145.827,926.109 1179.526,934.838 1257.134,907.353C1332.478,880.669 1336.799,835.151 1304.208,799.695C1215.302,702.972 1085.495,748.351 1043.875,795.807C1002.358,843.146 1012.124,875.547 1019.584,898.797C1039.857,961.977 1020.737,990.726 1050.978,994.117Z"/>
    </g>
</svg>
