<?xml version="1.0" encoding="UTF-8" standalone="no"?><!DOCTYPE svg PUBLIC "-//W3C//DTD SVG 1.1//EN" "http://www.w3.org/Graphics/SVG/1.1/DTD/svg11.dtd"><svg width="240" height="240" viewBox="0 0 123 123" version="1.1" xmlns="http://www.w3.org/2000/svg" xmlns:xlink="http://www.w3.org/1999/xlink" xml:space="preserve" xmlns:serif="http://www.serif.com/" style="fill-rule:evenodd;clip-rule:evenodd;stroke-linejoin:round;stroke-miterlimit:2;"><path d="M67.815,95.865l0.159,0.073c0.04,-0.021 0.073,0.097 0.112,0.076c0.114,-0.062 -1.141,-6.452 8.041,-15.395c2.675,-2.605 3.078,-2.686 2.991,-2.392c-0.198,0.668 -2.781,4.143 1.81,8.586c4.704,4.553 14.07,5.635 13.439,17.54c-0.708,13.361 -20.079,23.54 -32.949,12.656c-7.066,-5.976 -11.569,-24.163 8.318,-45.161c10.378,-10.958 22.386,-18.927 23.887,-29.588c2.122,-15.079 -24.975,-20.673 -45.234,-2.792c-4.875,4.302 -6.614,7.589 -8.407,10.427c-0.944,1.495 0.571,-0.222 3.955,-3.327c0.043,-0.04 10.868,-11.332 21.831,-7.895c9.588,3.006 11.861,15.891 -2.152,30.114c-12.466,12.653 -31.282,14.827 -35.962,-1.098c-1.163,-3.958 -0.331,-7.52 -0.626,-7.716c-0.758,-0.504 -5.926,-0.789 -5.14,-9.225c0.177,-1.897 2.377,-12.452 13.388,-20.804c6.611,-5.014 21.295,-11.37 25.623,-27.707c0.01,-0.037 0.63,-1.995 0.431,-0.196c-0.154,1.39 -1.632,4.865 -1.806,5.276c-5.193,12.208 -18.867,19.885 -21.973,22.152c-0.165,0.12 -9.084,5.831 -12.772,16.208c-3.212,9.037 1.502,11.454 3.011,10.913c0.421,-0.151 2.548,-11.886 20.032,-22.403c16.305,-9.808 37.765,-12.477 48.631,-0.734c5.814,6.283 6.512,15.822 -0.041,24.879c-9.96,13.765 -21.293,17.33 -27.018,28.924c-2.183,4.421 -1.65,7.791 -1.579,8.612Zm-11.391,-47.239c-7.159,0.739 -8.376,3.133 -18.624,8.798c-0.283,0.157 -0.845,0.467 -0.635,3.999c0.49,8.22 8.964,11.596 20.156,3.46c11.453,-8.326 8.452,-16.486 -0.55,-16.278c-0.116,0.003 -0.231,0.02 -0.347,0.022Z" style="fill:#262323;"/></svg>
