<?xml version="1.0" encoding="UTF-8" standalone="no"?>
<!DOCTYPE svg PUBLIC "-//W3C//DTD SVG 1.1//EN" "http://www.w3.org/Graphics/SVG/1.1/DTD/svg11.dtd">
<svg width="100%" height="100%" viewBox="0 0 123 123" version="1.1" xmlns="http://www.w3.org/2000/svg" xmlns:xlink="http://www.w3.org/1999/xlink" xml:space="preserve" xmlns:serif="http://www.serif.com/" style="fill-rule:evenodd;clip-rule:evenodd;stroke-linejoin:round;stroke-miterlimit:2;">
    <g transform="matrix(0.089045,0,0,0.078891,-29.582923,-18.086479)">
        <path d="M947.415,805.973C981.893,809.547 999.059,841.9 1037.397,926.817C1041.761,936.483 1112.61,972.329 1172.894,983.504C1319.966,1010.767 1466.986,931.68 1589.139,1212.94C1667.123,1392.501 1584.898,1490.523 1598.735,1573.05C1615.834,1675.031 1720.064,1779.88 1699.012,1774.953C1682.724,1771.14 1595.427,1630.984 1498.83,1611.824C1418.632,1595.917 1312.326,1631.313 1167.129,1502.853C943.063,1304.617 1093.931,1198.312 1056.107,1019.181C1048.737,984.28 1034.173,941.868 1028.948,939.084C923.177,882.706 893.346,861.373 882.391,805.102C879.777,791.67 882.595,774.587 879.113,772.838C806.333,736.293 811.309,728.772 746.369,679.813C654.027,610.195 586.394,590.959 571.12,586.615C507.32,568.469 321.61,533.514 346.201,370.851C365.495,243.221 585.671,152.892 665.396,390.86C685.145,449.808 698.513,546.671 806.187,671.676C811.596,677.956 855.275,728.665 882.805,741.42C886.006,742.903 886.846,742.767 887.878,739.328C891.363,727.727 912.552,634.919 990.932,620.659C1098.837,601.028 1144.423,771.913 970.977,788.733C931.503,792.561 914.558,779.325 913.636,789.066C906.997,859.157 984.522,894.25 1014.873,917.206C1015.37,917.582 1024.297,924.335 1022.429,919.094C1019.411,910.629 998.35,877.107 996.111,873.543C979.862,847.68 954.406,816.198 949.088,810.934C946.098,807.974 947.863,807.3 947.415,805.973ZM1453.075,1573.843C1473.252,1572.447 1512.105,1567.188 1562.67,1611.393C1607.197,1650.319 1615.984,1672.056 1621.105,1674.756C1627.388,1678.068 1618.301,1665.343 1617.807,1664.651C1529.974,1541.645 1569.103,1505.782 1589.436,1417.105C1593.902,1397.63 1615.6,1303.003 1526.366,1175.443C1425.529,1031.299 1318.889,1018.832 1242.862,1007.987C1094.955,986.889 1053.296,944.099 1047.419,949.474C1045.705,951.043 1047.017,951.248 1050.203,959.294C1099.131,1082.855 1087.86,1281.523 1200.216,1447.538C1220.317,1477.239 1290.768,1593.87 1453.075,1573.843ZM1027.884,717.011C1027.723,714.634 1026.609,698.245 1016.595,689.449C967.437,646.272 921.421,743.22 921.558,755.033C921.685,766.02 1023.459,773.913 1027.884,717.011Z" style="fill:#ffffff;"/>
        <path d="M1572.106,1400.929C1571.753,1403.587 1567.331,1491.784 1498.464,1536.164C1442.216,1572.413 1318.006,1582.111 1215.168,1430.887C1027.399,1154.773 1284.795,974.095 1440.484,1103.66C1498.532,1151.969 1580.166,1260.267 1572.106,1400.929ZM1365.114,1289.855C1492.784,1263.122 1398.134,1053.864 1271.011,1101.027C1164.011,1140.724 1252.456,1297.926 1365.114,1289.855Z" style="fill:#ffffff;"/>
    </g>
</svg>
