<?xml version="1.0" encoding="UTF-8" standalone="no"?><!DOCTYPE svg PUBLIC "-//W3C//DTD SVG 1.1//EN" "http://www.w3.org/Graphics/SVG/1.1/DTD/svg11.dtd"><svg width="240" height="240" viewBox="0 0 123 123" version="1.1" xmlns="http://www.w3.org/2000/svg" xmlns:xlink="http://www.w3.org/1999/xlink" xml:space="preserve" xmlns:serif="http://www.serif.com/" style="fill-rule:evenodd;clip-rule:evenodd;stroke-linejoin:round;stroke-miterlimit:2;"><path d="M115.36,42.381c-1.324,-0.135 -1.34,-0.058 -2.561,-0.603c-0.394,-0.176 -1.342,-0.724 -1.86,-0.856c-2.64,-0.675 -24.104,4.372 -33.772,10.163c-0.992,0.594 -0.679,0.895 -0.043,1.865c9.492,14.47 -2.967,30.815 -14.252,30.197c-7.544,-0.414 -13.057,-12.474 0.468,-26.631c3.085,-3.229 4.359,-3.802 3.349,-4.009c-13.498,-2.776 -30.62,11.423 -37.591,16.445c-20.388,14.688 -24.924,23.973 -27.572,24.635c-0.43,0.107 -1.588,-0.519 1.587,-5.305c9.264,-13.964 28.897,-29.451 33.865,-33.084c21.769,-15.919 32.395,-7.862 34.876,-6.895c1.187,0.463 1.115,-0.234 7.062,-3.658c6.093,-3.508 21.32,-10.085 23.767,-11.061c8.514,-3.395 11.229,-4.374 13.137,-4.297c8.473,0.342 7.918,12.833 -0.461,13.094Zm-52.797,34.024c7.076,-0.277 18.803,-10.229 12.291,-19.09c-2.468,-3.358 -3.211,-2.775 -4.459,-1.815c-1.057,0.813 -9.99,7.158 -11.523,15.799c-0.963,5.428 3.511,5.099 3.69,5.107Z" style="fill:#271e1d;"/></svg>
